<?xml version="1.0" encoding="UTF-8" standalone="no"?>
<!-- Created with Inkscape (http://www.inkscape.org/) -->

<svg
   width="53.207001mm"
   height="9.0509996mm"
   viewBox="0 -1 53.207 9.051"
   version="1.1"
   id="svg1"
   sodipodi:docname="question_mark_banner_dark.svg"
   inkscape:version="1.3 (0e150ed6c4, 2023-07-21)"
   xmlns:inkscape="http://www.inkscape.org/namespaces/inkscape"
   xmlns:sodipodi="http://sodipodi.sourceforge.net/DTD/sodipodi-0.dtd"
   xmlns="http://www.w3.org/2000/svg"
   xmlns:svg="http://www.w3.org/2000/svg">
  <sodipodi:namedview
     id="namedview1"
     pagecolor="#8b8b8b"
     bordercolor="#000000"
     borderopacity="0.25"
     inkscape:showpageshadow="2"
     inkscape:pageopacity="0.0"
     inkscape:pagecheckerboard="0"
     inkscape:deskcolor="#d1d1d1"
     inkscape:document-units="mm"
     inkscape:export-bgcolor="#6a6a6a00"
     inkscape:zoom="6.0078967"
     inkscape:cx="108.10772"
     inkscape:cy="17.060879"
     inkscape:window-width="1920"
     inkscape:window-height="1009"
     inkscape:window-x="1912"
     inkscape:window-y="-8"
     inkscape:window-maximized="1"
     inkscape:current-layer="svg1" />
  <defs
     id="defs1" />
  <g
     id="layer1"
     transform="translate(-132.07599,-40.348959)">
    <g
       id="g3">
      <g
         id="g2">
        <g
           id="g1">
          <path
             style="fill:#ffffff;fill-opacity:1;stroke:#000000;stroke-width:0.264583;stroke-opacity:0"
             d="m 155.78701,47.2673 c -0.28337,0 -0.51276,-0.23389 -0.51276,-0.52176 0,-0.28839 0.22939,-0.52255 0.51276,-0.52255 0.2831,0 0.51329,0.23416 0.51329,0.52255 0,0.28787 -0.23019,0.52176 -0.51329,0.52176 z"
             id="path24-6-2-0-4" />
          <path
             style="fill:#ffffff;fill-opacity:1;stroke:#000000;stroke-width:0.264583;stroke-opacity:0"
             d="m 155.58619,45.40701 v -0.21748 c 0,-0.85302 0.082,-0.98637 0.66569,-1.50469 l 0.34528,-0.30956 c 0.4191,-0.3683 0.60855,-0.76094 0.60855,-1.29646 0,-0.78581 -0.50986,-1.22925 -1.3978,-1.22925 -0.88767,0 -1.49595,0.61859 -1.47108,1.66423 h -0.4027 c -0.0331,-1.30493 0.79693,-2.03253 1.90686,-2.03253 1.24962,0 1.80022,0.7358 1.80022,1.54754 0,0.82815 -0.36195,1.21259 -0.87974,1.70577 l -0.26326,0.25109 c -0.45985,0.43471 -0.51779,0.50985 -0.51779,1.19565 v 0.22569 z"
             id="path17-3-89-2-2" />
        </g>
        <g
           id="g24-5-6-8-6-2-5"
           transform="rotate(180,119.31143,84.67531)"
           style="display:inline;fill:#ffffff;fill-opacity:1;stroke:#000000;stroke-opacity:0">
          <path
             style="fill:#ffffff;fill-opacity:1;stroke:#000000;stroke-width:0.264583;stroke-opacity:0"
             d="m 104.56075,122.08334 c 0.28337,0 0.51276,0.23389 0.51276,0.52176 0,0.28839 -0.22939,0.52255 -0.51276,0.52255 -0.2831,0 -0.51329,-0.23416 -0.51329,-0.52255 0,-0.28787 0.23019,-0.52176 0.51329,-0.52176 z"
             id="path24-0-3-5-0-9-2" />
          <path
             style="fill:#ffffff;fill-opacity:1;stroke:#000000;stroke-width:0.264583;stroke-opacity:0"
             d="m 104.76157,123.94363 v 0.21748 c 0,0.85302 -0.082,0.98637 -0.66569,1.50469 l -0.34528,0.30956 c -0.4191,0.3683 -0.60855,0.76094 -0.60855,1.29646 0,0.78581 0.50986,1.22925 1.3978,1.22925 0.88767,0 1.49595,-0.61859 1.47108,-1.66423 h 0.4027 c 0.0331,1.30493 -0.79693,2.03253 -1.90686,2.03253 -1.24962,0 -1.80022,-0.7358 -1.80022,-1.54754 0,-0.82815 0.36195,-1.21259 0.87974,-1.70577 l 0.26326,-0.25109 c 0.45985,-0.43471 0.51779,-0.50985 0.51779,-1.19565 v -0.22569 z"
             id="path17-3-2-6-7-7-4" />
        </g>
        <g
           id="g24-5-5-1-0-5-4"
           transform="translate(35.31637,-81.602087)"
           style="display:inline;fill:#ffffff;fill-opacity:1;stroke:#000000;stroke-opacity:0">
          <path
             style="fill:#ffffff;fill-opacity:1;stroke:#000000;stroke-width:0.264583;stroke-opacity:0"
             d="m 104.56075,122.08334 c 0.28337,0 0.51276,0.23389 0.51276,0.52176 0,0.28839 -0.22939,0.52255 -0.51276,0.52255 -0.2831,0 -0.51329,-0.23416 -0.51329,-0.52255 0,-0.28787 0.23019,-0.52176 0.51329,-0.52176 z"
             id="path24-0-5-15-1-6-3" />
          <path
             style="fill:#ffffff;fill-opacity:1;stroke:#000000;stroke-width:0.264583;stroke-opacity:0"
             d="m 104.76157,123.94363 v 0.21748 c 0,0.85302 -0.082,0.98637 -0.66569,1.50469 l -0.34528,0.30956 c -0.4191,0.3683 -0.60855,0.76094 -0.60855,1.29646 0,0.78581 0.50986,1.22925 1.3978,1.22925 0.88767,0 1.49595,-0.61859 1.47108,-1.66423 h 0.4027 c 0.0331,1.30493 -0.79693,2.03253 -1.90686,2.03253 -1.24962,0 -1.80022,-0.7358 -1.80022,-1.54754 0,-0.82815 0.36195,-1.21259 0.87974,-1.70577 l 0.26326,-0.25109 c 0.45985,-0.43471 0.51779,-0.50985 0.51779,-1.19565 v -0.22569 z"
             id="path17-3-4-9-0-4-8" />
        </g>
        <g
           id="g24-5-69-8-1-6-6"
           transform="rotate(180,124.91989,84.67531)"
           style="display:inline;fill:#ffffff;fill-opacity:1;stroke:#000000;stroke-opacity:0">
          <path
             style="fill:#ffffff;fill-opacity:1;stroke:#000000;stroke-width:0.264583;stroke-opacity:0"
             d="m 104.56075,122.08334 c 0.28337,0 0.51276,0.23389 0.51276,0.52176 0,0.28839 -0.22939,0.52255 -0.51276,0.52255 -0.2831,0 -0.51329,-0.23416 -0.51329,-0.52255 0,-0.28787 0.23019,-0.52176 0.51329,-0.52176 z"
             id="path24-0-37-4-3-3-0" />
          <path
             style="fill:#ffffff;fill-opacity:1;stroke:#000000;stroke-width:0.264583;stroke-opacity:0"
             d="m 104.76157,123.94363 v 0.21748 c 0,0.85302 -0.082,0.98637 -0.66569,1.50469 l -0.34528,0.30956 c -0.4191,0.3683 -0.60855,0.76094 -0.60855,1.29646 0,0.78581 0.50986,1.22925 1.3978,1.22925 0.88767,0 1.49595,-0.61859 1.47108,-1.66423 h 0.4027 c 0.0331,1.30493 -0.79693,2.03253 -1.90686,2.03253 -1.24962,0 -1.80022,-0.7358 -1.80022,-1.54754 0,-0.82815 0.36195,-1.21259 0.87974,-1.70577 l 0.26326,-0.25109 c 0.45985,-0.43471 0.51779,-0.50985 0.51779,-1.19565 v -0.22569 z"
             id="path17-3-45-8-7-7-8" />
        </g>
        <g
           id="g24-5-7-1-7-9-9"
           transform="translate(45.97881,-81.602087)"
           style="display:inline;fill:#ffffff;fill-opacity:1;stroke:#000000;stroke-opacity:0">
          <path
             style="fill:#ffffff;fill-opacity:1;stroke:#000000;stroke-width:0.264583;stroke-opacity:0"
             d="m 104.56075,122.08334 c 0.28337,0 0.51276,0.23389 0.51276,0.52176 0,0.28839 -0.22939,0.52255 -0.51276,0.52255 -0.2831,0 -0.51329,-0.23416 -0.51329,-0.52255 0,-0.28787 0.23019,-0.52176 0.51329,-0.52176 z"
             id="path24-0-4-0-2-7-2" />
          <path
             style="fill:#ffffff;fill-opacity:1;stroke:#000000;stroke-width:0.264583;stroke-opacity:0"
             d="m 104.76157,123.94363 v 0.21748 c 0,0.85302 -0.082,0.98637 -0.66569,1.50469 l -0.34528,0.30956 c -0.4191,0.3683 -0.60855,0.76094 -0.60855,1.29646 0,0.78581 0.50986,1.22925 1.3978,1.22925 0.88767,0 1.49595,-0.61859 1.47108,-1.66423 h 0.4027 c 0.0331,1.30493 -0.79693,2.03253 -1.90686,2.03253 -1.24962,0 -1.80022,-0.7358 -1.80022,-1.54754 0,-0.82815 0.36195,-1.21259 0.87974,-1.70577 l 0.26326,-0.25109 c 0.45985,-0.43471 0.51779,-0.50985 0.51779,-1.19565 v -0.22569 z"
             id="path17-3-43-3-6-4-2" />
        </g>
        <g
           id="g24-5-68-0-4-9-3"
           transform="translate(56.66149,-81.602087)"
           style="display:inline;fill:#ffffff;fill-opacity:1;stroke:#000000;stroke-opacity:0">
          <path
             style="fill:#ffffff;fill-opacity:1;stroke:#000000;stroke-width:0.264583;stroke-opacity:0"
             d="m 104.56075,122.08334 c 0.28337,0 0.51276,0.23389 0.51276,0.52176 0,0.28839 -0.22939,0.52255 -0.51276,0.52255 -0.2831,0 -0.51329,-0.23416 -0.51329,-0.52255 0,-0.28787 0.23019,-0.52176 0.51329,-0.52176 z"
             id="path24-0-8-4-5-1-1" />
          <path
             style="fill:#ffffff;fill-opacity:1;stroke:#000000;stroke-width:0.264583;stroke-opacity:0"
             d="m 104.76157,123.94363 v 0.21748 c 0,0.85302 -0.082,0.98637 -0.66569,1.50469 l -0.34528,0.30956 c -0.4191,0.3683 -0.60855,0.76094 -0.60855,1.29646 0,0.78581 0.50986,1.22925 1.3978,1.22925 0.88767,0 1.49595,-0.61859 1.47108,-1.66423 h 0.4027 c 0.0331,1.30493 -0.79693,2.03253 -1.90686,2.03253 -1.24962,0 -1.80022,-0.7358 -1.80022,-1.54754 0,-0.82815 0.36195,-1.21259 0.87974,-1.70577 l 0.26326,-0.25109 c 0.45985,-0.43471 0.51779,-0.50985 0.51779,-1.19565 v -0.22569 z"
             id="path17-3-431-4-2-7-8" />
        </g>
        <g
           id="g24-5-0-4-0-0-3"
           transform="rotate(180,135.73831,84.67531)"
           style="display:inline;fill:#ffffff;fill-opacity:1;stroke:#000000;stroke-opacity:0">
          <path
             style="fill:#ffffff;fill-opacity:1;stroke:#000000;stroke-width:0.264583;stroke-opacity:0"
             d="m 104.56075,122.08334 c 0.28337,0 0.51276,0.23389 0.51276,0.52176 0,0.28839 -0.22939,0.52255 -0.51276,0.52255 -0.2831,0 -0.51329,-0.23416 -0.51329,-0.52255 0,-0.28787 0.23019,-0.52176 0.51329,-0.52176 z"
             id="path24-0-6-4-2-6-4" />
          <path
             style="fill:#ffffff;fill-opacity:1;stroke:#000000;stroke-width:0.264583;stroke-opacity:0"
             d="m 104.76157,123.94363 v 0.21748 c 0,0.85302 -0.082,0.98637 -0.66569,1.50469 l -0.34528,0.30956 c -0.4191,0.3683 -0.60855,0.76094 -0.60855,1.29646 0,0.78581 0.50986,1.22925 1.3978,1.22925 0.88767,0 1.49595,-0.61859 1.47108,-1.66423 h 0.4027 c 0.0331,1.30493 -0.79693,2.03253 -1.90686,2.03253 -1.24962,0 -1.80022,-0.7358 -1.80022,-1.54754 0,-0.82815 0.36195,-1.21259 0.87974,-1.70577 l 0.26326,-0.25109 c 0.45985,-0.43471 0.51779,-0.50985 0.51779,-1.19565 v -0.22569 z"
             id="path17-3-8-7-9-0-2" />
        </g>
        <g
           id="g24-5-64-6-0-8-2"
           transform="translate(68.11306,-81.602087)"
           style="display:inline;fill:#ffffff;fill-opacity:1;stroke:#000000;stroke-opacity:0">
          <path
             style="fill:#ffffff;fill-opacity:1;stroke:#000000;stroke-width:0.264583;stroke-opacity:0"
             d="m 104.56075,122.08334 c 0.28337,0 0.51276,0.23389 0.51276,0.52176 0,0.28839 -0.22939,0.52255 -0.51276,0.52255 -0.2831,0 -0.51329,-0.23416 -0.51329,-0.52255 0,-0.28787 0.23019,-0.52176 0.51329,-0.52176 z"
             id="path24-0-9-3-9-5-4" />
          <path
             style="fill:#ffffff;fill-opacity:1;stroke:#000000;stroke-width:0.264583;stroke-opacity:0"
             d="m 104.76157,123.94363 v 0.21748 c 0,0.85302 -0.082,0.98637 -0.66569,1.50469 l -0.34528,0.30956 c -0.4191,0.3683 -0.60855,0.76094 -0.60855,1.29646 0,0.78581 0.50986,1.22925 1.3978,1.22925 0.88767,0 1.49595,-0.61859 1.47108,-1.66423 h 0.4027 c 0.0331,1.30493 -0.79693,2.03253 -1.90686,2.03253 -1.24962,0 -1.80022,-0.7358 -1.80022,-1.54754 0,-0.82815 0.36195,-1.21259 0.87974,-1.70577 l 0.26326,-0.25109 c 0.45985,-0.43471 0.51779,-0.50985 0.51779,-1.19565 v -0.22569 z"
             id="path17-3-5-17-9-3-5" />
        </g>
        <g
           id="g24-5-71-5-4-9-1"
           transform="rotate(180,141.45547,84.67531)"
           style="display:inline;fill:#ffffff;fill-opacity:1;stroke:#000000;stroke-opacity:0">
          <path
             style="fill:#ffffff;fill-opacity:1;stroke:#000000;stroke-width:0.264583;stroke-opacity:0"
             d="m 104.56075,122.08334 c 0.28337,0 0.51276,0.23389 0.51276,0.52176 0,0.28839 -0.22939,0.52255 -0.51276,0.52255 -0.2831,0 -0.51329,-0.23416 -0.51329,-0.52255 0,-0.28787 0.23019,-0.52176 0.51329,-0.52176 z"
             id="path24-0-7-96-51-4-7" />
          <path
             style="fill:#ffffff;fill-opacity:1;stroke:#000000;stroke-width:0.264583;stroke-opacity:0"
             d="m 104.76157,123.94363 v 0.21748 c 0,0.85302 -0.082,0.98637 -0.66569,1.50469 l -0.34528,0.30956 c -0.4191,0.3683 -0.60855,0.76094 -0.60855,1.29646 0,0.78581 0.50986,1.22925 1.3978,1.22925 0.88767,0 1.49595,-0.61859 1.47108,-1.66423 h 0.4027 c 0.0331,1.30493 -0.79693,2.03253 -1.90686,2.03253 -1.24962,0 -1.80022,-0.7358 -1.80022,-1.54754 0,-0.82815 0.36195,-1.21259 0.87974,-1.70577 l 0.26326,-0.25109 c 0.45985,-0.43471 0.51779,-0.50985 0.51779,-1.19565 v -0.22569 z"
             id="path17-3-27-2-0-1-5" />
        </g>
        <g
           id="g24-5-1-1-3-5-7"
           transform="translate(78.73634,-81.602087)"
           style="display:inline;fill:#ffffff;fill-opacity:1;stroke:#000000;stroke-opacity:0">
          <path
             style="fill:#ffffff;fill-opacity:1;stroke:#000000;stroke-width:0.264583;stroke-opacity:0"
             d="m 104.56075,122.08334 c 0.28337,0 0.51276,0.23389 0.51276,0.52176 0,0.28839 -0.22939,0.52255 -0.51276,0.52255 -0.2831,0 -0.51329,-0.23416 -0.51329,-0.52255 0,-0.28787 0.23019,-0.52176 0.51329,-0.52176 z"
             id="path24-0-0-7-7-4-1" />
          <path
             style="fill:#ffffff;fill-opacity:1;stroke:#000000;stroke-width:0.264583;stroke-opacity:0"
             d="m 104.76157,123.94363 v 0.21748 c 0,0.85302 -0.082,0.98637 -0.66569,1.50469 l -0.34528,0.30956 c -0.4191,0.3683 -0.60855,0.76094 -0.60855,1.29646 0,0.78581 0.50986,1.22925 1.3978,1.22925 0.88767,0 1.49595,-0.61859 1.47108,-1.66423 h 0.4027 c 0.0331,1.30493 -0.79693,2.03253 -1.90686,2.03253 -1.24962,0 -1.80022,-0.7358 -1.80022,-1.54754 0,-0.82815 0.36195,-1.21259 0.87974,-1.70577 l 0.26326,-0.25109 c 0.45985,-0.43471 0.51779,-0.50985 0.51779,-1.19565 v -0.22569 z"
             id="path17-3-6-85-8-1-6" />
        </g>
      </g>
    </g>
  </g>
</svg>
